<?xml version="1.0" encoding="UTF-8"?>
<svg width="1200" height="800" viewBox="0 0 1200 800" fill="none" xmlns="http://www.w3.org/2000/svg" role="img" aria-labelledby="title desc">
  <title id="title">Student learning on a laptop</title>
  <desc id="desc">An illustrative scene of a Black high school student using a laptop at a desk.</desc>
  <defs>
    <linearGradient id="bgGrad" x1="0" y1="0" x2="1" y2="1">
      <stop offset="0%" stop-color="#e8f4fb" />
      <stop offset="100%" stop-color="#d1e9f7" />
    </linearGradient>
    <linearGradient id="accent" x1="0" y1="0" x2="1" y2="1">
      <stop offset="0%" stop-color="#0A66C2" />
      <stop offset="100%" stop-color="#22d3ee" />
    </linearGradient>
    <filter id="shadow" x="-50%" y="-50%" width="200%" height="200%">
      <feDropShadow dx="0" dy="10" stdDeviation="12" flood-color="rgba(10,102,194,0.25)"/>
    </filter>
  </defs>

  <!-- Background -->
  <rect x="0" y="0" width="1200" height="800" fill="url(#bgGrad)"/>

  <!-- Desk -->
  <rect x="140" y="520" width="920" height="32" rx="16" fill="#cfe6f7"/>
  <rect x="180" y="552" width="200" height="16" rx="8" fill="#b8d9f3"/>
  <rect x="820" y="552" width="200" height="16" rx="8" fill="#b8d9f3"/>

  <!-- Student torso -->
  <path d="M540 360c0-44 36-80 80-80s80 36 80 80v58c0 22-18 40-40 40h-80c-22 0-40-18-40-40v-58z" fill="#0A66C2" opacity="0.9"/>

  <!-- Arms -->
  <path d="M540 422c-22 8-36 20-36 34 0 12 10 22 24 22h36v-56h-24z" fill="#5a3d2f"/>
  <path d="M700 422c22 8 36 20 36 34 0 12-10 22-24 22h-36v-56h24z" fill="#5a3d2f"/>

  <!-- Head -->
  <circle cx="620" cy="300" r="54" fill="#6a4b39"/>
  <path d="M572 296c6-26 26-46 48-54 24-8 50 0 68 16 10 10 16 22 18 36-8 6-24 10-40 12-28 2-58-2-78-10-8 0-12 0-16 0z" fill="#2f241e"/>

  <!-- Laptop -->
  <rect x="460" y="430" width="320" height="28" rx="10" fill="#dbeafe"/>
  <rect x="488" y="380" width="264" height="54" rx="10" fill="#f8fafc" stroke="#93c5fd" />
  <rect x="506" y="395" width="228" height="24" rx="6" fill="#e2e8f0"/>
  <circle cx="618" cy="444" r="4" fill="#93c5fd"/>

  <!-- Chair back -->
  <rect x="430" y="360" width="24" height="120" rx="12" fill="#bcd7f1"/>

  <!-- Accent orbs -->
  <circle cx="140" cy="140" r="70" fill="url(#accent)" opacity="0.15"/>
  <circle cx="1090" cy="120" r="90" fill="url(#accent)" opacity="0.12"/>
  <circle cx="1000" cy="680" r="60" fill="url(#accent)" opacity="0.12"/>

  <!-- Books and stationery -->
  <rect x="880" y="500" width="56" height="14" rx="4" fill="#9ed0f7"/>
  <rect x="854" y="486" width="82" height="14" rx="4" fill="#bfe1fb"/>
  <rect x="906" y="474" width="30" height="8" rx="4" fill="#7ac5f5"/>

  <!-- Decorative card with shadow (progress widget hint) -->
  <g filter="url(#shadow)">
    <rect x="860" y="160" width="210" height="120" rx="16" fill="#ffffff"/>
    <rect x="880" y="180" width="80" height="10" rx="5" fill="#0A66C2" opacity="0.85"/>
    <rect x="880" y="200" width="170" height="8" rx="4" fill="#dbeafe"/>
    <rect x="880" y="220" width="170" height="8" rx="4" fill="#e5effb"/>
    <rect x="880" y="248" width="120" height="14" rx="7" fill="#22c55e" opacity="0.9"/>
  </g>
</svg>
